<?xml version="1.0" encoding="utf-8"?>
<!-- Generator: Adobe Illustrator 27.4.1, SVG Export Plug-In . SVG Version: 6.00 Build 0)  -->
<svg version="1.1" id="Calque_1" xmlns="http://www.w3.org/2000/svg" xmlns:xlink="http://www.w3.org/1999/xlink" x="0px" y="0px"
	 viewBox="0 0 28.1 24.4" style="enable-background:new 0 0 28.1 24.4;" xml:space="preserve">
<style type="text/css">
	.st0{fill:#F2EACC;}
	.st1{fill:#9D6625;}
	.st2{fill:#FEE80D;}
	.st3{fill:#E5C903;}
	.st4{fill:#F5F5F5;}
	.st5{fill:#43ADE2;}
</style>
<g>
	<path class="st0" d="M20.9,17c-3,4.4-7.9,0.6-4.8-3.8C21.6,7.8,21.4,0.3,23.5,0C26.2-0.3,28.1,7.5,20.9,17z"/>
	<path class="st1" d="M1.6,16.3L0,17.7c0.4,0.6,0.9,1.2,1.3,1.8c0.8-0.7,1.7-1.5,2.3-2.3C2.9,16.9,2.3,16.6,1.6,16.3z"/>
	<path class="st2" d="M15.1,6.6c-3.4-0.9-5.6,1.5-5.6,1.5c3.2-1.7,7.9,2.2,7.2,3.4c-2.4,4.3-7.1,6.8-12,5.8c-0.4-0.1-0.7-0.2-1-0.3
		c-0.6,0.8-1.5,1.7-2.3,2.3c6.6,3.3,14.5,1.3,17.9-5.3C20.6,11.5,18,7.4,15.1,6.6z"/>
	<path class="st3" d="M28.1,17.4c0,0-0.6-2.7-3.8-4c-3.1-1.2-5.1,0.7-5.1,0.7c-2.5,4.5-7.5,7.1-12.6,6.1c-1.5-0.3-3-0.9-4.2-1.7
		c-0.3,0.3-0.7,0.6-1,0.9c1.8,2,4.2,3.5,7,4c4.3,0.8,8.6-0.8,11.4-3.9C24.2,14,28.1,17.4,28.1,17.4z"/>
	<path class="st4" d="M15.3,16.5c1.4-0.9,2.1-2.3,1.6-3.2c-0.2-0.3-0.4-0.5-0.8-0.6c-0.1,0.1-0.2,0.2-0.3,0.4
		c0.2,0.1,0.4,0.2,0.6,0.5c0.4,0.7-0.2,1.9-1.3,2.6c-1.1,0.7-2.3,0.7-2.7,0c-0.2,0.1-0.4,0.2-0.5,0.3c0,0,0,0,0,0
		C12.4,17.3,13.9,17.3,15.3,16.5z"/>
	<path class="st5" d="M12.4,16c0.4,0.7,1.6,0.7,2.7,0c1.1-0.7,1.7-1.9,1.3-2.6c-0.1-0.2-0.3-0.4-0.6-0.5
		C14.8,14.2,13.7,15.3,12.4,16z"/>
	<path class="st2" d="M28.1,17.4c0.1,2.5-1.7,6.4-4.8,6.9c-3.1,0.5,4-9.3-0.8-11.3C22.5,13.1,27.9,13.1,28.1,17.4z"/>
	<path class="st3" d="M15.9,6.9c-7-2.9-9.3,5.9-5.8,4.9C11.3,11.4,12,8.8,15.9,6.9z"/>
</g>
</svg>
