<?xml version="1.0" encoding="utf-8"?>
<!-- Generator: Adobe Illustrator 27.4.1, SVG Export Plug-In . SVG Version: 6.00 Build 0)  -->
<svg version="1.1" id="Calque_1" xmlns="http://www.w3.org/2000/svg" xmlns:xlink="http://www.w3.org/1999/xlink" x="0px" y="0px"
	 viewBox="0 0 80 64.6" style="enable-background:new 0 0 80 64.6;" xml:space="preserve">
<style type="text/css">
	.st0{fill:#F2EACC;}
	.st1{fill:#9D6625;}
	.st2{fill:#FEE80D;}
	.st3{fill:#E5C903;}
	.st4{fill:#F5F5F5;}
	.st5{fill:#43ADE2;}
</style>
<g>
	<path class="st0" d="M20.5,44.9c8.7,11.6,22.4,1.5,13.8-10.2C18.6,20.7,19,0.7,13,0C5.6-0.8,0,19.9,20.5,44.9z"/>
	<path class="st1" d="M75.4,43.1l4.6,3.7c-1.1,1.7-2.4,3.3-3.8,4.7c-2.3-1.7-4.9-4-6.6-6.2C71.6,44.8,73.6,44,75.4,43.1z"/>
	<path class="st2" d="M37,17.5c9.6-2.3,15.8,4,15.8,4c-9.1-4.5-22.5,5.7-20.5,9C39.2,42,52.7,48.5,66.6,46c1-0.2,2-0.4,3-0.7
		c1.7,2.2,4.3,4.4,6.6,6.2c-18.8,8.7-41.3,3.6-50.8-14C21.5,30.4,28.9,19.5,37,17.5z"/>
	<path class="st3" d="M0,46.2c0,0,1.8-7.1,10.9-10.5c8.8-3.3,14.5,1.8,14.5,1.8c7.2,12,21.3,18.9,36,16.3c4.4-0.8,8.4-2.4,12-4.6
		c0.9,0.8,1.9,1.6,2.8,2.3c-5.1,5.3-11.9,9.2-19.8,10.6C44,64.4,32,60.1,23.8,51.8C11.3,37.1,0,46.2,0,46.2z"/>
	<path class="st4" d="M36.6,43.6c-3.9-2.3-5.9-6.1-4.4-8.5c0.5-0.8,1.2-1.3,2.2-1.6c0.2,0.3,0.5,0.6,0.7,0.9
		c-0.7,0.3-1.3,0.7-1.6,1.2c-1.2,2,0.4,5.1,3.6,6.9c3.1,1.8,6.5,1.7,7.7-0.1c0.5,0.3,1,0.5,1.5,0.8c0,0,0,0,0,0.1
		C44.8,45.8,40.5,45.9,36.6,43.6z"/>
	<path class="st5" d="M44.8,42.5c-1.3,1.8-4.7,1.9-7.7,0.1c-3.2-1.9-4.8-5-3.6-6.9c0.4-0.6,0.9-1,1.6-1.2
		C37.8,37.7,41.1,40.4,44.8,42.5z"/>
	<path class="st2" d="M0,46.2c-0.3,6.6,4.9,17,13.8,18.3c8.9,1.4-11.2-24.6,2.2-29.9C15.9,34.6,0.5,34.6,0,46.2z"/>
	<path class="st3" d="M34.8,18.3C54.6,10.7,61.3,34,51.4,31.3C47.8,30.2,45.8,23.4,34.8,18.3z"/>
</g>
</svg>
