<?xml version="1.0" encoding="utf-8"?>
<!-- Generator: Adobe Illustrator 27.4.1, SVG Export Plug-In . SVG Version: 6.00 Build 0)  -->
<svg version="1.1" id="Calque_1" xmlns="http://www.w3.org/2000/svg" xmlns:xlink="http://www.w3.org/1999/xlink" x="0px" y="0px"
	 viewBox="0 0 80 80" style="enable-background:new 0 0 80 80;" xml:space="preserve">
<style type="text/css">
	.st0{fill:#EFF6F7;}
	.st1{fill:#D3D9D9;}
	.st2{fill:#734F42;}
	.st3{fill:#8F6B55;}
	.st4{fill:#B69367;}
	.st5{fill:#F9F3D9;}
	.st6{opacity:0.6;}
	.st7{fill:#A7AFB0;}
</style>
<g>
	<g>
		<path class="st0" d="M62.9,48.4l3.8-3.1l7.7-0.4l5.6,5.6c0-6.6-4.4-10.7-13.3-8.2c-0.6,0.2-2.3,0.3-2.3,0.3L62.9,48.4z"/>
		<path class="st0" d="M76.8,50.2c0,6.2-14.6,7.8-19,10.9c-1.9,1.3-5,7.1-5,7.1l25.9-15C78.7,53.3,76.8,45.4,76.8,50.2z"/>
		<path class="st1" d="M62.9,50.7l2.2-0.5c0,0,0.4-2.1,2.1-3.6c2.2-2,9.7-1.5,9.7,3.3c0,7.9-15,10.4-19.4,13.5c-1.9,1.3-4,5.4-4,5.4
			s1.6,0.3,2,0c6.8-5.6,24.6-8,24.6-18.4c0-3.8-5.5-8.5-13.3-5.7c-0.5,0.2-2.3,0.3-2.3,0.3L62.9,50.7z"/>
		<path class="st1" d="M50.5,70.6H14.9c0,0,0.5,3.7,5.2,6.7c1.8,1.1,5.9,2.7,12.6,2.7c6.6,0,10.8-1.6,12.6-2.7
			C50.1,74.3,50.5,70.6,50.5,70.6z"/>
		<path class="st0" d="M65.4,37.6H0c0,0,0.9,15.6,9.6,28.2c3.2,4.7,10.9,11.4,23.1,11.4c12.2,0,19.9-6.7,23.1-11.4
			C64.6,53.1,65.4,37.6,65.4,37.6z"/>
		<ellipse class="st0" cx="32.7" cy="37.6" rx="32.7" ry="13.6"/>
		<path class="st1" d="M32.7,29.6c15.1,0,27.6,4.3,30.6,10c0.4-0.8,0.7-1.7,0.7-2.6c0-7-14-12.6-31.2-12.6
			C15.5,24.4,1.5,30.1,1.5,37c0,0.9,0.2,1.7,0.7,2.6C5.1,33.9,17.7,29.6,32.7,29.6z"/>
		<path class="st2" d="M32.7,49.6c15.1,0,27.6-4.3,30.6-10c-2.9-5.7-15.5-10-30.6-10c-15.1,0-27.6,4.3-30.6,10
			C5.1,45.3,17.7,49.6,32.7,49.6z"/>
		<path class="st3" d="M53.7,36.2c-4.6-5.3-19.6-2.9-21-0.3c-1.9-2.8-16.5-5-21,0.3c-2.8,3.3,3.7,6.4,10.1,8.6c4.1,1.6,0,3.3,0,3.3
			c16.2,0,27.6-5.7,27.6-5.7C53.2,40.5,55.6,38.4,53.7,36.2z"/>
		<path class="st4" d="M46.1,38.1c-2.7-4.3-12.7-2.5-13.8-0.4c-1.1-2.3-10.6-4.1-13.8,0c-2,2.6,2,5.1,6.2,6.9
			c2.6,1.3-0.2,2.6-0.2,2.6C35.1,47.4,42.9,43,42.9,43h0C45.5,41.5,47.2,39.8,46.1,38.1z"/>
		<path class="st5" d="M41.5,39.6c-1.8-2.9-8.5-1.7-9.2-0.3c-0.7-1.5-7.1-2.7-9.3,0c-1.4,1.7,1.4,3.4,4.1,4.6
			c1.7,0.9-0.1,1.8-0.1,1.8c7.2,0.1,12.4-2.9,12.4-2.9C41.1,41.9,42.2,40.8,41.5,39.6z"/>
		<g class="st6">
			<path class="st7" d="M34.5,12.5C29.6,7.4,32.9,0,32.9,0s-10.3,9.8-3.8,16.6c7.6,7.8,3.8,12.7,3.8,12.7S42.2,20.6,34.5,12.5z"/>
			<path class="st7" d="M19.8,17.1C16.1,13.4,18.5,8,18.5,8s-7.8,7.2-2.9,12.1c5.7,5.7,2.9,9.3,2.9,9.3S25.6,22.9,19.8,17.1z"/>
			<path class="st7" d="M49.1,17.1C45.4,13.4,47.9,8,47.9,8s-7.8,7.2-2.9,12.1c5.7,5.7,2.9,9.3,2.9,9.3S54.9,22.9,49.1,17.1z"/>
		</g>
	</g>
</g>
</svg>
