<?xml version="1.0" encoding="utf-8"?>
<!-- Generator: Adobe Illustrator 27.4.1, SVG Export Plug-In . SVG Version: 6.00 Build 0)  -->
<svg version="1.1" id="Calque_1" xmlns="http://www.w3.org/2000/svg" xmlns:xlink="http://www.w3.org/1999/xlink" x="0px" y="0px"
	 viewBox="0 0 27.9 26" style="enable-background:new 0 0 27.9 26;" xml:space="preserve">
<style type="text/css">
	.st0{fill-rule:evenodd;clip-rule:evenodd;fill:#77A835;}
	.st1{fill:#947252;}
	.st2{fill:#668A2F;}
	.st3{fill:#FFE72F;}
	.st4{fill-rule:evenodd;clip-rule:evenodd;fill:#8EC044;}
	.st5{fill:#7FB63B;}
</style>
<g>
	<path class="st0" d="M12.2,0.3C8.8-1.2,6.5,3.5,6.5,3.5s1,2.2,2.5,2.7C14.3,7.8,19,0.6,19,0.6S15.5,1.8,12.2,0.3z"/>
	<path class="st1" d="M3.2,1.8C3.1,1.8,3,2.5,3.2,2.5c3,0.6,4.2,2.9,4.3,3.3c0.1,0.6,1,0,0.7-0.7C8.1,4.9,6.4,2.2,3.2,1.8z"/>
	<path class="st2" d="M26,25c0.1,0.1,0.7,0.3,1,0c0.3-0.3,0.1-0.9,0-1c-0.1-0.1-0.4,0-0.7,0.3C26,24.6,25.8,24.9,26,25z"/>
	<path class="st3" d="M7.1,7C6.9,6.7,7.2,5.9,7.8,5.2c0.6-0.7,1.4-1,1.7-0.7c3.9-2.5,9.9-1.4,14.1,3.1c3.8,4,5.1,9.3,3.6,13.3
		c0.8,1,0.5,2.6-0.7,3.8c-1.2,1.2-2.8,1.5-3.7,0.7c-3.8,1.6-9,0.2-12.8-3.8C5.8,17.2,4.7,11,7.1,7z"/>
	<path class="st4" d="M7.8,5.6c-0.7-2-3.5-3.1-3.5-3.1s-5.9,3.3-3.7,7.6c2.1,4.2,0.7,8.9,0.7,8.9S10.2,12.5,7.8,5.6z"/>
	<path class="st5" d="M4.2,2.6C3.8,3.1,3.4,3.7,3.1,4.4C2.9,5,2.7,5.7,2.6,6.5c-0.2,1.5,0,2.9,0.1,4.4c0.1,1.4,0.1,2.8-0.1,4.2
		c-0.2,1.4-0.7,2.7-1.3,4c0.4-0.6,0.7-1.2,1-1.8c0.3-0.7,0.5-1.3,0.7-2.1c0.3-1.4,0.3-2.9,0.2-4.4C3,9.3,2.8,7.9,2.9,6.5
		C3,5.1,3.5,3.8,4.2,2.6z"/>
</g>
</svg>
