<?xml version="1.0" encoding="utf-8"?>
<!-- Generator: Adobe Illustrator 27.4.1, SVG Export Plug-In . SVG Version: 6.00 Build 0)  -->
<svg version="1.1" id="Calque_1" xmlns="http://www.w3.org/2000/svg" xmlns:xlink="http://www.w3.org/1999/xlink" x="0px" y="0px"
	 viewBox="0 0 204.5 44.6" style="enable-background:new 0 0 204.5 44.6;" xml:space="preserve">
<style type="text/css">
	.st0{fill:#5DB56B;}
</style>
<g>
	<path class="st0" d="M2.2,32.8c-1.5-1.3-2.2-3-2.2-5.2c0-3.2,0.8-6.1,2.4-8.8C4,16,6.1,13.9,8.7,12.3c2.7-1.6,5.5-2.4,8.6-2.4
		c1.9,0,3.4,0.5,4.7,1.6c1.3,1,1.9,2.6,1.9,4.6c0,1.2-0.4,2.1-1.1,2.9s-1.8,1.4-3.2,2c-1.4,0.6-3.7,1.4-6.8,2.5
		c-2.8,0.9-5.1,1.7-6.9,2.4c-0.1,0.5-0.2,1-0.2,1.5c0,0.9,0.4,1.6,1.2,2.1c0.8,0.5,1.9,0.8,3.3,0.8c0.9,0,1.9-0.2,3.1-0.5
		c1.2-0.4,1.9-0.8,2.2-1.4c1.1-2.1,2.2-3.1,3.1-3.1c1.4,0,2.3,0.3,2.8,0.8c0.5,0.5,0.7,1.1,0.8,1.7c-0.4,1.1-1.2,2.1-2.3,3.2
		c-1.2,1.1-2.7,2-4.5,2.7s-3.8,1-5.9,1C6.1,34.7,3.8,34,2.2,32.8z M15.4,18.3c2.1-0.9,3.2-1.8,3.2-2.7c0-0.4-0.2-0.7-0.6-1
		c-0.4-0.2-0.9-0.4-1.4-0.4c-1,0-2.1,0.4-3.4,1.2c-1.3,0.8-2.5,1.7-3.6,2.8s-1.9,2.1-2.3,3.1C10.5,20.2,13.3,19.2,15.4,18.3z"/>
	<path class="st0" d="M28.6,10.4c0-0.3,0.4-0.6,1.1-0.8c0.7-0.2,1.8-0.3,3-0.3c1.2,0,2,0.3,2.4,1s0.6,1.5,0.8,2.5
		c-0.1,0.3-0.1,0.6-0.2,1.1l-0.2,1.2c1-1.1,2.4-2.2,4.3-3.3c1.9-1.1,3.4-1.6,4.5-1.6c1.7,0,2.8,0.3,3.5,0.9c0.7,0.6,1,1.7,1.1,3.3
		c1.2-1.2,2.7-2.2,4.2-3c1.6-0.8,3-1.2,4.2-1.2c1.3,0,2.4,0.3,3.5,0.8c1.1,0.5,1.6,1.3,1.6,2.5c0,0.3,0,0.5-0.1,0.7
		c-0.1,0.5-0.3,1.3-0.6,2.2c-0.3,1-0.5,1.6-0.6,2.1c-0.8,2.7-1.5,5-1.9,6.8c-0.4,1.8-0.7,3.7-0.8,5.4l0.7,2.5
		c-0.4,0.8-1,1.4-1.7,1.8c-0.7,0.5-1.8,0.7-3.1,0.7c-0.8,0-1.4-0.3-1.8-0.8c-0.4-0.5-0.5-1.2-0.5-2c0-0.2,0-0.4,0-0.5
		c0-0.2,0-0.4,0-0.6c0.1-1.9,0.3-3.8,0.8-5.7c0.5-1.9,1.1-4.1,1.9-6.5c0.7-2.1,1-3.4,1-3.9c0-0.2,0-0.4-0.1-0.6
		c-0.1-0.2-0.1-0.3-0.2-0.3c-0.8,0-2,0.4-3.8,1.1c-1.8,0.7-2.9,1.5-3.5,2.2c-0.6,2-1.7,6.3-3.1,12.7l-0.3,1.4
		c-0.2,0.9-0.3,1.5-0.5,1.8c-0.2,0.3-0.4,0.6-0.9,0.8c-0.4,0.2-1.1,0.2-2.1,0.2c-2.3,0-3.5-0.5-3.5-1.4c0.3-0.7,1-3.5,2.2-8.4
		c0.7-3,1.6-6.4,2.5-10.1c-0.2,0.1-0.6,0.2-1.1,0.5c-1.6,0.6-3,1.3-4.2,1.9c-1.2,0.7-2.1,1.5-2.9,2.4l-1.3,5.3
		c-0.2,0.8-0.4,1.5-0.5,2.2c-0.2,0.7-0.3,1.3-0.5,1.7c-0.2,0.6-0.3,1.3-0.4,2.3c-0.1,0.7-0.2,1.1-0.3,1.4c-0.1,0.3-0.4,0.5-0.9,0.7
		c-0.4,0.2-1.2,0.3-2.1,0.3c-1.1,0-1.9-0.1-2.5-0.4c-0.6-0.2-0.8-0.7-0.8-1.5c0-0.4,0.4-2.3,1.3-5.8s2-8.1,3.5-13.8l-1.2-1.5
		C28.7,10.7,28.6,10.6,28.6,10.4z"/>
	<path class="st0" d="M67.1,31.1c-1.6-2-2.5-4.5-2.5-7.6c0-2.6,0.6-5,1.7-7.1c1.1-2.2,2.7-3.9,4.7-5.1c2-1.2,4.3-1.9,6.9-1.9
		c2.9,0,4.9,0.2,5.9,0.8c0.3,0.1,0.6,0.3,0.8,0.6c0.2,0.3,0.4,0.6,0.4,0.8c0,0.3-0.1,0.7-0.2,1.1c-0.1,0.4-0.4,0.6-0.7,0.8
		c0.8,0.1,1.4,0.4,1.9,1.1c0.5,0.7,0.9,1.5,1.2,2.4c0.3,0.9,0.4,1.7,0.4,2.4c0,2.4-0.6,4.7-1.7,7c-1.1,2.3-2.8,4.2-4.8,5.6
		c-2.1,1.5-4.4,2.2-7.1,2.2C71.1,34.1,68.8,33.1,67.1,31.1z M78,28.4c1.1-1,2-2.4,2.8-4.2c0.7-1.7,1.1-3.6,1.1-5.5
		c0-0.4-0.1-0.7-0.4-1c-0.2-0.3-0.6-0.6-1-0.9c-0.2-0.2-0.4-0.3-0.6-0.5c-0.2-0.2-0.3-0.4-0.3-0.5c0-0.1,0-0.3,0.1-0.5
		c0.1-0.2,0.1-0.4,0.1-0.5c0-0.5-0.6-0.8-1.9-0.8c-1.4,0-2.6,0.5-3.8,1.6c-1.2,1.1-2.1,2.5-2.7,4.2c-0.6,1.7-1,3.4-1,5
		c0,1,0.2,1.8,0.6,2.6c0.4,0.8,1,1.4,1.6,1.8c0.7,0.5,1.3,0.7,1.9,0.7C75.8,30,76.9,29.5,78,28.4z"/>
	<path class="st0" d="M96.8,11.5c0-0.9,0.3-1.5,0.9-1.8c0.6-0.3,1.4-0.5,2.6-0.5c1,0,1.7,0.3,2.1,0.8s0.7,1.2,0.7,1.9
		c0,0.2,0,0.5-0.1,0.8c-2.2,9.1-4,16.2-5.3,21.3c-0.9,3.5-2.2,6.1-3.9,7.9c-1.7,1.8-4.2,2.6-7.4,2.6c-0.9,0-1.8-0.2-2.9-0.5
		c-1-0.4-1.9-0.9-2.6-1.6c-0.7-0.7-1.1-1.5-1.1-2.4c0-0.6,0.2-1.1,0.5-1.4c0.3-0.3,1-0.5,1.9-0.5c0.3,0,0.5,0.2,0.8,0.6
		c0.3,0.4,0.6,0.7,1.1,1c0.5,0.3,1.3,0.4,2.5,0.4c1.2,0,2.2-0.5,3-1.5s1.4-2.4,1.9-4.2l5.5-22.3C96.9,12.1,96.8,11.9,96.8,11.5z
		 M98,1.2c0.7-0.8,1.6-1.2,2.7-1.2c1.2,0,2.3,0.4,3.2,1.1c0.9,0.8,1.4,1.6,1.4,2.6c0,1-0.5,1.8-1.4,2.5c-0.9,0.7-2,1-3.2,1
		c-1.2,0-2.1-0.3-2.7-0.9C97.3,5.8,97,4.9,97,3.9C97,2.9,97.3,2,98,1.2z"/>
	<path class="st0" d="M125.1,33.7c-0.5,0.2-1.1,0.3-1.8,0.3c-2.3,0-3.5-0.5-3.5-1.6l2.1-5.8c-1.4,2.8-3,4.8-4.8,6.1
		c-1.8,1.3-3.5,1.9-5.1,1.9c-2.1,0-3.5-0.6-4.4-1.9s-1.3-3.2-1.3-5.6c0-0.5,0.1-1.1,0.2-1.9l3.1-13.4c0.2-0.7,0.5-1.3,1-1.6
		c0.5-0.3,1.3-0.5,2.5-0.5c1.8,0,2.6,0.5,2.6,1.5c0,0.3-0.1,0.9-0.3,1.9l-3.1,13.4c-0.2,0.6-0.3,1.1-0.3,1.6c0,1.3,0.5,1.9,1.5,1.9
		c0.9,0,2.2-1.1,3.8-3.2c1.6-2.1,3.1-4.6,4.6-7.4c1.4-2.8,2.4-5.2,2.8-7c0.2-0.7,0.3-1.3,0.5-1.6c0.2-0.4,0.5-0.6,1-0.8
		c0.5-0.2,1.2-0.3,2.1-0.3c1.8,0,2.7,0.5,2.7,1.6c0,0.2-0.1,0.7-0.3,1.2c-0.5,2.5-1.4,5.9-2.5,10.1c-1.3,5.1-2,8.4-2.3,9.8
		C125.9,33.1,125.6,33.5,125.1,33.7z"/>
	<path class="st0" d="M139.8,29c-0.1,0.5-0.2,1.1-0.2,1.8l0,1.4c0,0.6-0.2,1-0.5,1.2c-0.4,0.2-1.1,0.4-2.2,0.4
		c-1.1,0-1.9-0.1-2.5-0.4c-0.6-0.2-0.8-0.7-0.8-1.5c0-0.4,0.4-2.3,1.3-5.8s2-8.1,3.5-13.8l-1.2-1.5c-0.1-0.1-0.1-0.2-0.1-0.4
		c0-0.3,0.4-0.6,1.1-0.8c0.7-0.2,1.8-0.3,3-0.3c1.1,0,1.9,0.3,2.2,1c0.3,0.6,0.5,1.5,0.5,2.5C142.1,20,140.7,25.4,139.8,29z
		 M139.6,1.2c0.6-0.8,1.6-1.2,2.7-1.2c1.2,0,2.3,0.4,3.2,1.1c0.9,0.8,1.4,1.6,1.4,2.6c0,1-0.5,1.8-1.4,2.5c-0.9,0.7-2,1-3.2,1
		c-1.2,0-2.1-0.3-2.7-0.9c-0.6-0.6-0.9-1.4-0.9-2.4C138.6,2.9,138.9,2,139.6,1.2z"/>
	<path class="st0" d="M167.5,29.9c-1.4,1.3-3,2.5-4.9,3.4c-1.9,1-3.9,1.4-6,1.4c-1.7,0-3.3-0.3-4.8-0.9c-1.5-0.6-2.7-1.6-3.6-2.9
		c-0.9-1.3-1.4-2.9-1.4-4.8c0-3.1,0.6-5.9,1.9-8.4c1.2-2.4,3-4.3,5.3-5.7c2.3-1.4,4.9-2.1,7.9-2.1c1.9,0,3.6,0.6,5,1.7
		c1.4,1.1,2.1,2.6,2.2,4.5c0,0.7-0.2,1.3-0.8,1.8c-0.5,0.5-1.2,0.7-2.2,0.7c-0.8,0-1.3-0.2-1.7-0.5s-0.7-0.9-1-1.6
		c-0.3-0.8-0.7-1.4-1.1-1.8s-1-0.6-1.9-0.6c-1,0-2.1,0.5-3.3,1.6c-1.2,1-2.2,2.5-3.1,4.4c-0.8,1.9-1.2,4-1.2,6.4
		c0,1,0.4,1.9,1.2,2.6c0.8,0.8,1.9,1.1,3.2,1.1c1.1,0,2.2-0.4,3.2-1.1s2.1-1.8,3.5-3.2c0.8-0.9,1.5-1.5,2-1.9
		c0.5-0.4,0.9-0.6,1.3-0.6c1.7,0,2.6,0.9,2.9,2.8C169.7,27.3,168.8,28.5,167.5,29.9z"/>
	<path class="st0" d="M173.5,32.8c-1.5-1.3-2.2-3-2.2-5.2c0-3.2,0.8-6.1,2.4-8.8c1.6-2.7,3.7-4.8,6.3-6.4c2.7-1.6,5.5-2.4,8.6-2.4
		c1.9,0,3.4,0.5,4.7,1.6c1.3,1,1.9,2.6,1.9,4.6c0,2.3-0.8,4.1-2.5,5.4c-1.7,1.3-3.8,2.3-6.4,2.9c-2.6,0.6-5.6,1.1-9.2,1.4
		c-0.1,0.5-0.2,1-0.2,1.5c0,0.9,0.4,1.6,1.2,2.1c0.8,0.5,1.9,0.8,3.3,0.8c1.1,0,2.3-0.2,3.7-0.6c1.4-0.4,2.4-1.1,3.2-2.1
		c0.4-0.6,0.9-1,1.5-1.4c0.6-0.3,1.2-0.5,1.8-0.5c0.5,0,1,0.2,1.3,0.5c0.3,0.4,0.5,0.9,0.5,1.6c-0.4,1.1-1.2,2.1-2.3,3.2
		c-1.2,1.1-2.7,2-4.5,2.7s-3.8,1-5.9,1C177.4,34.7,175,34,173.5,32.8z M182.9,20.7c1.8-0.3,3.4-0.9,4.8-1.8c1.4-0.9,2.1-2,2.1-3.4
		c0-0.4-0.2-0.7-0.6-1c-0.4-0.2-0.9-0.4-1.4-0.4c-1,0-2.1,0.4-3.4,1.2c-1.3,0.8-2.5,1.7-3.6,2.8s-1.9,2.1-2.3,3.1
		C179.7,21.2,181.2,21,182.9,20.7z"/>
	<path class="st0" d="M203.9,31.8c-0.4,0.6-0.9,1.1-1.5,1.5c-0.7,0.4-1.4,0.5-2.3,0.5c-1.1,0-2-0.2-2.6-0.7c-0.6-0.5-1-1.2-1-2.1
		c0-0.8,0.2-1.5,0.6-2.1s1-1.2,1.7-1.6c0.7-0.4,1.5-0.6,2.4-0.6c0.6,0,1.1,0.1,1.6,0.3c0.5,0.2,0.9,0.6,1.2,1c0.3,0.4,0.5,1,0.5,1.6
		C204.5,30.5,204.3,31.2,203.9,31.8z M202,32.5c0.4-0.3,0.8-0.7,1-1.2s0.4-1,0.4-1.5c0-0.4-0.1-0.8-0.3-1.2s-0.5-0.6-0.8-0.7
		s-0.7-0.3-1.1-0.3c-0.5,0-1.1,0.1-1.6,0.4c-0.5,0.3-1,0.7-1.3,1.2c-0.3,0.5-0.5,1.1-0.5,1.8c0,0.6,0.2,1.1,0.7,1.4
		c0.5,0.3,1.2,0.5,2.1,0.5C201.1,32.9,201.6,32.8,202,32.5z M198.9,28.8c0.2-0.1,0.4-0.2,0.7-0.3c0.1-0.2,0.3-0.3,0.5-0.3
		c0.1,0,0.2,0,0.3,0.1c0.1,0,0.3,0,0.4,0c0.3,0,0.5,0.1,0.7,0.2c0.2,0.1,0.4,0.3,0.5,0.4s0.2,0.4,0.2,0.5c0,0.4-0.1,0.6-0.4,0.9
		c-0.2,0.2-0.5,0.4-0.9,0.4l0.4,0.4c0.3,0.3,0.4,0.4,0.4,0.4h0.1c0.1,0,0.2,0.1,0.2,0.2s0.1,0.2,0.1,0.3c0,0.1-0.1,0.2-0.2,0.3
		c0,0-0.1,0-0.1,0.1c-0.1,0-0.1,0-0.2,0c-0.1,0-0.1,0-0.2,0c-0.5-0.2-1-0.7-1.3-1.6l-0.3,1.1c0,0.2-0.1,0.3-0.2,0.4
		c-0.1,0.1-0.2,0.1-0.4,0.1c-0.2,0-0.3,0-0.4-0.1c-0.1-0.1-0.1-0.2-0.1-0.4c0-0.1,0.2-1,0.6-2.6l-0.4,0.2c-0.1-0.1-0.2-0.2-0.2-0.2
		c0-0.1-0.1-0.1-0.1-0.2C198.6,29,198.7,28.9,198.9,28.8z M200.9,30c0.2-0.1,0.3-0.3,0.3-0.5c0-0.1,0-0.2-0.1-0.3
		c-0.1-0.1-0.2-0.1-0.3-0.1c-0.1,0-0.2,0-0.3,0l-0.2,1C200.4,30.2,200.7,30.1,200.9,30z"/>
</g>
</svg>
