<?xml version="1.0" encoding="utf-8"?>
<!-- Generator: Adobe Illustrator 27.4.1, SVG Export Plug-In . SVG Version: 6.00 Build 0)  -->
<svg version="1.1" id="Calque_1" xmlns="http://www.w3.org/2000/svg" xmlns:xlink="http://www.w3.org/1999/xlink" x="0px" y="0px"
	 viewBox="0 0 80 80" style="enable-background:new 0 0 80 80;" xml:space="preserve">
<style type="text/css">
	.st0{fill:#8EC044;}
	.st1{fill:#668A2F;}
	.st2{fill:#EA4F3E;}
	.st3{fill:#FDEFF0;}
</style>
<g>
	<g>
		<path class="st0" d="M28.7,14.8C30.6,9.6,44.9,0,44.9,0s4.5,17.2,2.6,22.3c-1.9,5.1-7.6,7.6-12.8,5.5
			C29.5,25.8,26.8,19.9,28.7,14.8z"/>
		<path class="st1" d="M20.2,25.1c-2.3-5,1.1-22,1.1-22S36.5,12.1,38.8,17c2.3,5,0,10.8-5.2,13C28.5,32.3,22.5,30.1,20.2,25.1z"/>
		<path class="st0" d="M25,20.3C20,18,3.1,21.4,3.1,21.4S12,36.7,17,39c5,2.3,10.8,0,13-5.2C32.2,28.7,29.9,22.6,25,20.3z"/>
		<path class="st1" d="M14.7,28.9C9.6,30.8,0,45.1,0,45.1s17.1,4.5,22.2,2.6c5.1-1.9,7.6-7.7,5.5-12.9C25.7,29.7,19.8,27,14.7,28.9z
			"/>
		<path class="st2" d="M66,19.6c15.3,15.4,17.1,49,9.8,56.2c-7.3,7.3-40.5,5.5-55.9-10c-11.3-11.4-6-28.6,5.8-40.4
			C37.5,13.6,54.7,8.2,66,19.6z"/>
		<path class="st3" d="M51.7,18.3c-0.7,0-1.3,0.2-1.7,0.8c-0.7,1-0.1,2.7,1.4,3.7c0.8,0.5,1.6,0.8,2.3,0.8c0.7,0,1.3-0.2,1.7-0.8
			c0.7-1,0.1-2.7-1.4-3.7C53.2,18.6,52.4,18.3,51.7,18.3"/>
		<path class="st3" d="M56.5,41.7c-0.4,0-0.9,0.1-1.2,0.4c-0.9,0.8-0.7,2.6,0.5,4c0.8,0.9,1.8,1.4,2.7,1.4c0.4,0,0.9-0.1,1.2-0.4
			c0.9-0.8,0.7-2.6-0.5-4C58.4,42.2,57.4,41.7,56.5,41.7"/>
		<path class="st3" d="M45,30.1c-0.4,0-0.8,0.1-1.1,0.4c-1,0.8-0.8,2.6,0.4,4c0.8,0.9,1.8,1.5,2.7,1.5c0.4,0,0.8-0.1,1.1-0.4
			c1-0.8,0.8-2.6-0.4-4C46.9,30.6,45.9,30.1,45,30.1"/>
		<path class="st3" d="M64.7,31.4c-0.3,0-0.5,0.1-0.8,0.2c-1.1,0.6-1.3,2.4-0.4,4c0.7,1.2,1.8,2,2.8,2c0.3,0,0.5-0.1,0.8-0.2
			c1.1-0.6,1.3-2.4,0.4-4C66.8,32.2,65.6,31.4,64.7,31.4"/>
		<path class="st3" d="M70.8,49.1c-0.1,0-0.3,0-0.4,0.1c-1.2,0.3-1.8,2-1.3,3.8c0.4,1.6,1.5,2.7,2.6,2.7c0.1,0,0.3,0,0.4-0.1
			c1.2-0.3,1.8-2,1.3-3.8C73,50.2,71.9,49.1,70.8,49.1"/>
		<path class="st3" d="M69.2,65.6c-0.5,0-0.9,0.1-1.2,0.4c-0.9,0.8-0.7,2.6,0.5,4c0.8,0.9,1.8,1.4,2.7,1.4c0.5,0,0.9-0.1,1.2-0.4
			c0.9-0.8,0.7-2.6-0.5-4C71.1,66.1,70.1,65.6,69.2,65.6"/>
		<path class="st3" d="M39.6,63.6c-0.7,0-1.4,0.3-1.7,0.8c-0.7,1,0,2.7,1.5,3.7c0.7,0.5,1.6,0.8,2.3,0.8c0.7,0,1.4-0.3,1.7-0.8
			c0.7-1,0-2.7-1.5-3.7C41.2,63.8,40.4,63.6,39.6,63.6"/>
		<path class="st3" d="M24.2,59.2c-0.7,0-1.4,0.3-1.7,0.8c-0.7,1,0,2.7,1.5,3.7c0.7,0.5,1.6,0.8,2.3,0.8c0.7,0,1.4-0.3,1.7-0.8
			c0.7-1,0-2.7-1.5-3.7C25.8,59.4,24.9,59.2,24.2,59.2"/>
		<path class="st3" d="M52.8,70c-1,0-1.9,0.4-2.2,1.2c-0.5,1.2,0.5,2.6,2.2,3.3c0.6,0.2,1.1,0.3,1.7,0.3c1,0,1.9-0.4,2.2-1.2
			c0.5-1.2-0.5-2.6-2.2-3.3C53.9,70.1,53.4,70,52.8,70"/>
		<path class="st3" d="M55.8,56.7c-0.8,0-1.5,0.3-1.8,0.9c-0.6,1.1,0.1,2.7,1.7,3.6c0.7,0.4,1.5,0.6,2.1,0.6c0.8,0,1.5-0.3,1.8-0.9
			c0.6-1.1-0.1-2.7-1.7-3.6C57.2,56.9,56.5,56.7,55.8,56.7"/>
		<path class="st3" d="M41.6,47.2c-0.6,0-1.1,0.2-1.5,0.6c-0.8,1-0.3,2.7,1.1,3.8c0.8,0.7,1.7,1,2.5,1c0.6,0,1.1-0.2,1.5-0.6
			c0.8-1,0.3-2.7-1.1-3.8C43.3,47.6,42.4,47.2,41.6,47.2"/>
		<path class="st3" d="M30,29.2c-0.5,0-1,0.2-1.3,0.5c-0.9,0.9-0.6,2.6,0.7,3.9c0.8,0.8,1.8,1.3,2.6,1.3c0.5,0,1-0.2,1.3-0.5
			c0.9-0.9,0.6-2.6-0.7-3.9C31.9,29.6,30.9,29.2,30,29.2"/>
		<path class="st3" d="M26.2,43.7c-0.6,0-1.2,0.2-1.5,0.7c-0.8,1-0.2,2.7,1.2,3.8c0.8,0.6,1.7,0.9,2.4,0.9c0.6,0,1.2-0.2,1.5-0.7
			c0.8-1,0.2-2.7-1.2-3.8C27.9,44,27,43.7,26.2,43.7"/>
	</g>
</g>
</svg>
