<?xml version="1.0" encoding="utf-8"?>
<!-- Generator: Adobe Illustrator 27.4.1, SVG Export Plug-In . SVG Version: 6.00 Build 0)  -->
<svg version="1.1" id="Calque_1" xmlns="http://www.w3.org/2000/svg" xmlns:xlink="http://www.w3.org/1999/xlink" x="0px" y="0px"
	 viewBox="0 0 80 80" style="enable-background:new 0 0 80 80;" xml:space="preserve">
<style type="text/css">
	.st0{fill:#9E7659;}
	.st1{fill:#8A674D;}
	.st2{fill:#B1CC31;}
	.st3{fill:#C5D659;}
	.st4{fill:#EAECAC;}
	.st5{fill:#3E4348;}
</style>
<g>
	<path class="st0" d="M47.5,80c-63.4,0-63.4-80,0-80V80z"/>
	<ellipse class="st1" cx="47.5" cy="40" rx="32.5" ry="40"/>
	<ellipse class="st2" cx="47.5" cy="40" rx="30.6" ry="37.7"/>
	<ellipse class="st3" cx="47.5" cy="40" rx="26.7" ry="32.9"/>
	<path class="st2" d="M68.5,47c-0.4,1.9-8.2,0-9,1.6c-0.8,1.7,4.4,9.1,3.3,10.4c-1.1,1.4-7.1-5.1-8.4-4.2c-1.3,1,0.2,10.6-1.4,11.1
		c-1.5,0.5-4-8.8-5.6-8.8c-1.5,0-4.1,9.2-5.7,8.7c-1.5-0.5,0-10.1-1.3-11.1c-1.4-1-7.4,5.4-8.4,4.1c-1.1-1.4,4.1-8.7,3.4-10.4
		c-0.8-1.7-8.6,0.2-9-1.7c-0.4-1.8,7.1-5,7.1-6.9c0-1.9-7.5-5.1-7.1-7c0.4-1.9,8.2,0,9-1.6c0.8-1.7-4.4-9.1-3.3-10.4
		c1.1-1.4,7.1,5.1,8.4,4.2c1.3-1-0.2-10.6,1.4-11.1c1.5-0.5,4,8.8,5.6,8.8c1.5,0,4.1-9.2,5.7-8.7c1.5,0.5,0,10.1,1.3,11.1
		c1.4,1,7.4-5.4,8.4-4.1c1.1,1.4-4.1,8.7-3.4,10.4c0.8,1.7,8.6-0.2,9,1.7c0.4,1.8-7.1,5-7.1,6.9C61.5,41.9,69,45.1,68.5,47z"/>
	<polygon class="st4" points="65.3,40 54.5,42.3 62.9,50.9 52.7,46.3 56.4,58.9 49.4,48.6 47.5,61.9 45.7,48.6 38.7,58.9 42.4,46.3 
		32.2,50.9 40.5,42.3 29.8,40 40.5,37.7 32.2,29.1 42.4,33.7 38.7,21.1 45.7,31.4 47.5,18.1 49.4,31.4 56.4,21.1 52.7,33.7 
		62.9,29.1 54.5,37.7 	"/>
	<polygon class="st5" points="43.9,20.5 43.3,23.7 45,26.3 45.6,23 	"/>
	<polygon class="st5" points="40.5,16 39.9,19.2 41.6,21.8 42.2,18.5 	"/>
	<polygon class="st5" points="52.5,19.8 50.3,21.6 50,24.9 52.3,23.1 	"/>
	<polygon class="st5" points="51.2,59.5 51.8,56.3 50.1,53.7 49.5,57 	"/>
	<polygon class="st5" points="54.6,64 55.2,60.8 53.5,58.2 52.9,61.5 	"/>
	<polygon class="st5" points="42.6,60.2 44.8,58.4 45,55.1 42.8,56.9 	"/>
	<polygon class="st5" points="63.4,35.5 60.7,34.7 58.7,36.9 61.3,37.6 	"/>
	<polygon class="st5" points="67,31.3 64.4,30.6 62.3,32.7 65,33.4 	"/>
	<polygon class="st5" points="63.9,46.1 62.5,43.3 59.8,43.1 61.3,45.9 	"/>
	<polygon class="st5" points="31.7,44.5 34.3,45.3 36.4,43.1 33.8,42.4 	"/>
	<polygon class="st5" points="28.1,48.7 30.7,49.4 32.7,47.3 30.1,46.6 	"/>
	<polygon class="st5" points="31.2,33.9 32.6,36.7 35.3,36.9 33.8,34.1 	"/>
	<polygon class="st5" points="60.2,27.5 57.6,28.2 56.5,31.3 59.1,30.5 	"/>
	<polygon class="st5" points="62,21.8 59.4,22.5 58.3,25.5 61,24.8 	"/>
	<polygon class="st5" points="33,58.2 35.6,57.5 36.7,54.5 34.1,55.2 	"/>
	<polygon class="st5" points="37.4,24.4 38,27.6 40.4,28.9 39.8,25.7 	"/>
	<polygon class="st5" points="32.8,22.1 33.4,25.3 35.8,26.7 35.2,23.5 	"/>
	<polygon class="st5" points="62.3,57.9 61.7,54.7 59.3,53.3 59.9,56.5 	"/>
</g>
</svg>
