<?xml version="1.0" encoding="utf-8"?>
<!-- Generator: Adobe Illustrator 27.4.1, SVG Export Plug-In . SVG Version: 6.00 Build 0)  -->
<svg version="1.1" id="Calque_1" xmlns="http://www.w3.org/2000/svg" xmlns:xlink="http://www.w3.org/1999/xlink" x="0px" y="0px"
	 viewBox="0 0 27.9 27.9" style="enable-background:new 0 0 27.9 27.9;" xml:space="preserve">
<style type="text/css">
	.st0{fill:#638D2E;}
	.st1{fill-rule:evenodd;clip-rule:evenodd;fill:#F39B2F;}
	.st2{fill-rule:evenodd;clip-rule:evenodd;fill:#7FB63B;}
	.st3{fill:#FCC34B;}
	.st4{fill-rule:evenodd;clip-rule:evenodd;fill:#8EC044;}
	.st5{fill:#8EC044;}
	.st6{fill:#7FB63B;}
</style>
<g>
	<path class="st0" d="M13.1,4.4l0.1-0.6c0,0,1.7,1,3.6,0.3l0.1,0.4C14.8,5.2,13.2,4.5,13.1,4.4z"/>
	<ellipse class="st1" cx="12" cy="16.8" rx="12" ry="11.1"/>
	<path class="st2" d="M9.3,7.9c0.1-0.6,2.2-0.3,2.2-0.3s-0.1-1.4,0.3-1.5c0.4-0.1,1,1.3,1,1.3s1.7-0.7,1.9-0.2
		c0.2,0.4-1.2,1.2-1.2,1.2s1.8,1.4,1.4,1.9c-0.4,0.5-2.3-1-2.3-1s-1.2,2-1.7,1.8c-0.5-0.3,0.4-2.3,0.4-2.3S9.2,8.4,9.3,7.9z"/>
	<polyline class="st3" points="7.7,12.6 7.4,13 7.7,13.3 8.1,13 7.7,12.6 	"/>
	<polyline class="st3" points="4.9,12.4 4.6,12.8 4.9,13.1 5.3,12.8 4.9,12.4 	"/>
	<polyline class="st3" points="2.7,12.4 2.3,12.8 2.7,13.1 3,12.8 2.7,12.4 	"/>
	<polyline class="st3" points="9.3,14.2 8.9,14.5 9.3,14.9 9.6,14.5 9.3,14.2 	"/>
	<polyline class="st3" points="7.7,16.1 7.4,16.4 7.7,16.8 8.1,16.4 7.7,16.1 	"/>
	<polyline class="st3" points="5.3,16.1 4.9,16.4 5.3,16.8 5.6,16.4 5.3,16.1 	"/>
	<polyline class="st3" points="2.5,16.3 2.1,16.6 2.5,17 2.9,16.6 2.5,16.3 	"/>
	<polyline class="st3" points="6.5,14.2 6.1,14.6 6.5,15 6.9,14.6 6.5,14.2 	"/>
	<polyline class="st3" points="4.1,14.2 3.7,14.6 4.1,15 4.4,14.6 4.1,14.2 	"/>
	<polyline class="st3" points="1.6,14.2 1.3,14.6 1.6,15 2,14.6 1.6,14.2 	"/>
	<polyline class="st3" points="9,11 8.7,11.3 9,11.7 9.4,11.3 9,11 	"/>
	<polyline class="st3" points="6.3,11 6,11.3 6.3,11.7 6.7,11.3 6.3,11 	"/>
	<polyline class="st3" points="3.7,10.6 3.3,11 3.7,11.3 4.1,11 3.7,10.6 	"/>
	<polyline class="st3" points="8,9.5 7.6,9.9 8,10.3 8.4,9.9 8,9.5 	"/>
	<polyline class="st3" points="7,8.1 6.6,8.5 7,8.9 7.3,8.5 7,8.1 	"/>
	<polyline class="st3" points="5.3,9.2 4.9,9.5 5.3,9.9 5.6,9.5 5.3,9.2 	"/>
	<polyline class="st3" points="6.5,17.9 6.1,18.3 6.5,18.6 6.9,18.3 6.5,17.9 	"/>
	<polyline class="st3" points="3.9,17.9 3.6,18.3 3.9,18.6 4.3,18.3 3.9,17.9 	"/>
	<path class="st4" d="M21.1,1.9c3,2.5,6.8,1.8,6.8,1.8s-6.1,7.7-11.2,4.5C12,5.3,16.7-1.7,21.1,1.9z"/>
	<path class="st0" d="M13.3,0.4l-0.9,0.4c1.4,4.3-0.3,6.7-0.7,7.1C11.1,8.5,12.4,9,13,8.2C13.1,8.1,14.9,5.5,13.3,0.4z"/>
	<path class="st5" d="M12.8,0c0.3,0,0.5,0.3,0.5,0.6c0,0.3-0.2,0.6-0.5,0.6S12.4,1,12.4,0.6C12.4,0.3,12.6,0,12.8,0z"/>
	<path class="st6" d="M14.8,4.5c0.5-0.3,1-0.6,1.5-0.8c0.5-0.2,1.1-0.3,1.7-0.3c1.2,0,2.3,0.3,3.4,0.6c1.1,0.3,2.2,0.5,3.3,0.4
		c1.1-0.1,2.2-0.4,3.2-0.8c-0.5,0.3-1,0.5-1.5,0.7c-0.5,0.2-1.1,0.3-1.7,0.4c-1.1,0.1-2.3,0-3.4-0.3c-1.1-0.3-2.2-0.6-3.3-0.7
		C16.9,3.8,15.8,4.1,14.8,4.5z"/>
</g>
</svg>
