<?xml version="1.0" encoding="utf-8"?>
<!-- Generator: Adobe Illustrator 27.4.1, SVG Export Plug-In . SVG Version: 6.00 Build 0)  -->
<svg version="1.1" id="Calque_1" xmlns="http://www.w3.org/2000/svg" xmlns:xlink="http://www.w3.org/1999/xlink" x="0px" y="0px"
	 viewBox="0 0 27.9 27.9" style="enable-background:new 0 0 27.9 27.9;" xml:space="preserve">
<style type="text/css">
	.st0{fill:#EB5759;}
	.st1{fill:#CDDC77;}
	.st2{fill:#8EC044;}
	.st3{fill-rule:evenodd;clip-rule:evenodd;fill:#3E4348;}
	.st4{fill:#668A2F;}
</style>
<g>
	<path class="st0" d="M0,22.5c7.5,7.3,20.3,7.3,27.8,0L13.9,0L0,22.5z"/>
	<path class="st1" d="M1.8,19.6l-0.5,0.7c5.5,4.8,17.2,6.7,25.3,0l-0.5-0.7C19,24.9,8.9,24.9,1.8,19.6z"/>
	<path class="st2" d="M1.3,20.3L0,22.4c7.5,7.3,20.3,7.3,27.9,0l-1.3-2.1C19.4,26,8.5,26,1.3,20.3z"/>
	<path class="st3" d="M6.5,17c0-0.6,1.1-2.1,1.1-2.1s1.1,1.6,1.1,2.2c0,0.6-0.5,1.1-1.1,1.1C7,18.1,6.5,17.6,6.5,17z"/>
	<path class="st3" d="M12.3,19.1c0-0.6,1.1-2.1,1.1-2.1s1.1,1.6,1.1,2.2c0,0.6-0.5,1.1-1.1,1.1C12.8,20.2,12.3,19.7,12.3,19.1z"/>
	<path class="st3" d="M16,13.7c0-0.6,1.1-2.1,1.1-2.1s1.1,1.6,1.1,2.2c0,0.6-0.5,1.1-1.1,1.1C16.6,14.8,16.1,14.3,16,13.7z"/>
	<path class="st3" d="M19.9,18.8c0-0.6,1.1-2.1,1.1-2.1s1.1,1.6,1.1,2.2c0,0.6-0.5,1.1-1.1,1.1C20.4,19.9,19.9,19.4,19.9,18.8z"/>
	<path class="st3" d="M11.7,8.8c0-0.6,1.1-2.1,1.1-2.1s1.1,1.6,1.1,2.2c0,0.6-0.5,1.1-1.1,1.1C12.2,9.9,11.7,9.4,11.7,8.8z"/>
	<path class="st4" d="M12.2,24.5v3.3c1.2,0.1,2.3,0.1,3.5,0v-3.3C14.5,24.6,13.4,24.6,12.2,24.5z"/>
	<path class="st4" d="M4,22l-1,2.7c1,0.6,2,1.2,3.1,1.6l1.1-2.9C6.1,23.1,5,22.6,4,22z"/>
	<path class="st4" d="M23.9,22c-1,0.6-2.1,1.1-3.2,1.4l1.1,2.9c1.1-0.4,2.1-1,3.1-1.6L23.9,22z"/>
</g>
</svg>
