<?xml version="1.0" encoding="utf-8"?>
<!-- Generator: Adobe Illustrator 27.4.1, SVG Export Plug-In . SVG Version: 6.00 Build 0)  -->
<svg version="1.1" id="Calque_1" xmlns="http://www.w3.org/2000/svg" xmlns:xlink="http://www.w3.org/1999/xlink" x="0px" y="0px"
	 viewBox="0 0 27.2 28.1" style="enable-background:new 0 0 27.2 28.1;" xml:space="preserve">
<style type="text/css">
	.st0{fill-rule:evenodd;clip-rule:evenodd;fill:#86BE50;}
	.st1{fill:#947252;}
	.st2{fill-rule:evenodd;clip-rule:evenodd;fill:#EA4F3E;}
</style>
<g>
	<path class="st0" d="M13.3,1.4c0.5,1.2-0.2,5.1-0.2,5.1S9.6,4.4,9,3.2c-0.5-1.2,0-2.5,1.2-3C11.4-0.3,12.8,0.2,13.3,1.4z"/>
	<path class="st1" d="M14.2,6.7H13c0-2,1.1-5.4,5.6-5.4v1.2C14.5,2.5,14.2,6.3,14.2,6.7z"/>
	<path class="st2" d="M13.6,6.5C10.2,3,0,2.8,0,12.8c0,6.3,7.4,15.3,10.6,15.3c1.5,0,2-0.9,2.8-0.9c0.9,0,1.1,0.9,3,0.9
		c3.2,0,10.7-9,10.7-15.3C27.2,2.8,17,3,13.6,6.5z"/>
</g>
</svg>
